<mxfile host="app.diagrams.net" modified="2023-05-23T11:22:43.751Z" agent="Mozilla/5.0 (Macintosh; Intel Mac OS X 10_15_7) AppleWebKit/605.1.15 (KHTML, like Gecko) Version/16.3.1 Safari/605.1.15" etag="gedqmLXHI6fC2Pp3291-" version="21.3.2" type="github">
  <diagram name="Page-1" id="8378b5f6-a2b2-b727-a746-972ab9d02e00">
    <mxGraphModel dx="763" dy="436" grid="1" gridSize="10" guides="1" tooltips="1" connect="0" arrows="1" fold="1" page="1" pageScale="1.5" pageWidth="1169" pageHeight="827" background="none" math="0" shadow="0">
      <root>
        <mxCell id="0" />
        <mxCell id="1" parent="0" />
        <mxCell id="2YZFmlmiOmZLl_yHb_Xa-279" value="" style="edgeStyle=orthogonalEdgeStyle;rounded=0;orthogonalLoop=1;jettySize=auto;html=1;" edge="1" parent="1" source="63" target="2">
          <mxGeometry relative="1" as="geometry" />
        </mxCell>
        <mxCell id="63" value="1" style="strokeColor=#DEEDFF;fillColor=#CCE5FF;fontStyle=1" parent="1" vertex="1">
          <mxGeometry x="86.5" y="380" width="40" height="20" as="geometry" />
        </mxCell>
        <mxCell id="64" value="Proje Gereksinimlerinin Belirlenmesi " style="align=left;strokeColor=#DEEDFF;fillColor=#CCE5FF;fontSize=12;fontStyle=1;spacing=5;perimeterSpacing=0;" parent="1" vertex="1">
          <mxGeometry x="126.5" y="380" width="319" height="21" as="geometry" />
        </mxCell>
        <mxCell id="65" value="14 days" style="strokeColor=#DEEDFF;fillColor=#CCE5FF;fontStyle=1" parent="1" vertex="1">
          <mxGeometry x="446.50000000000176" y="380" width="80.00000000000028" height="20" as="geometry" />
        </mxCell>
        <mxCell id="66" value="29.05.23" style="strokeColor=#DEEDFF;fillColor=#CCE5FF;" parent="1" vertex="1">
          <mxGeometry x="526.500000000002" y="380" width="80.00000000000028" height="20" as="geometry" />
        </mxCell>
        <mxCell id="67" value="16.06.23" style="strokeColor=#DEEDFF;fillColor=#CCE5FF;" parent="1" vertex="1">
          <mxGeometry x="606.5000000000016" y="380.0000000000002" width="80.00000000000028" height="20" as="geometry" />
        </mxCell>
        <mxCell id="69" value="1.1" style="strokeColor=#DEEDFF;fillColor=#FFFFFF;fontSize=10;" parent="1" vertex="1">
          <mxGeometry x="86.50000000000026" y="399.9999999999999" width="40" height="20" as="geometry" />
        </mxCell>
        <mxCell id="70" value="Kullanıcı beklentilerinin ölçülmesi, rezervasyon sureci, kullanıcı ve şirket&#xa;profilleri, odeme yöntemleri gibi gereksinimlerin belirlenmesi" style="align=left;strokeColor=#DEEDFF;fillColor=#FFFFFF;perimeterSpacing=1;fontStyle=0;fontSize=10;" parent="1" vertex="1">
          <mxGeometry x="126.50000000000026" y="399.9999999999999" width="319.9999999999998" height="20" as="geometry" />
        </mxCell>
        <mxCell id="71" value="" style="strokeColor=#DEEDFF;fillColor=#FFFFFF;" parent="1" vertex="1">
          <mxGeometry x="446.500000000002" y="400.99999999999983" width="80.00000000000028" height="20" as="geometry" />
        </mxCell>
        <mxCell id="72" value="" style="strokeColor=#DEEDFF;fillColor=#FFFFFF;" parent="1" vertex="1">
          <mxGeometry x="526.5000000000023" y="399.99999999999983" width="80.00000000000028" height="20" as="geometry" />
        </mxCell>
        <mxCell id="73" value="" style="strokeColor=#DEEDFF;fillColor=#FFFFFF;" parent="1" vertex="1">
          <mxGeometry x="606.5000000000018" y="400.0000000000001" width="80.00000000000028" height="20" as="geometry" />
        </mxCell>
        <mxCell id="74" value="2" style="strokeColor=#DEEDFF;fillColor=#CCE5FF;fontStyle=1" parent="1" vertex="1">
          <mxGeometry x="86.50000000000027" y="420.9999999999998" width="40" height="20" as="geometry" />
        </mxCell>
        <mxCell id="75" value="Tasarim ve Planlama Sureci" style="align=left;strokeColor=#DEEDFF;fillColor=#CCE5FF;fontStyle=1" parent="1" vertex="1">
          <mxGeometry x="126.50000000000027" y="419.9999999999998" width="319.9999999999997" height="20.000000000000014" as="geometry" />
        </mxCell>
        <mxCell id="76" value="45 days" style="strokeColor=#DEEDFF;fillColor=#CCE5FF;fontStyle=1" parent="1" vertex="1">
          <mxGeometry x="446.500000000002" y="419.9999999999997" width="80.00000000000028" height="20" as="geometry" />
        </mxCell>
        <mxCell id="77" value="16.06.23" style="strokeColor=#DEEDFF;fillColor=#CCE5FF;" parent="1" vertex="1">
          <mxGeometry x="526.5000000000023" y="419.9999999999997" width="80.00000000000028" height="20" as="geometry" />
        </mxCell>
        <mxCell id="78" value="23.08.23" style="strokeColor=#DEEDFF;fillColor=#CCE5FF;" parent="1" vertex="1">
          <mxGeometry x="606.5000000000018" y="420" width="80.00000000000028" height="20" as="geometry" />
        </mxCell>
        <mxCell id="79" value="2.1" style="strokeColor=#DEEDFF;fontSize=10;" parent="1" vertex="1">
          <mxGeometry x="86.5" y="441.00000000000017" width="40" height="20" as="geometry" />
        </mxCell>
        <mxCell id="80" value="Kullanılacak teknolojilerin belirlenmesi" style="align=left;strokeColor=#DEEDFF;fontSize=10;" parent="1" vertex="1">
          <mxGeometry x="126.5" y="441.00000000000017" width="320" height="20" as="geometry" />
        </mxCell>
        <mxCell id="81" value="" style="strokeColor=#DEEDFF" parent="1" vertex="1">
          <mxGeometry x="446.5000000000017" y="441.0000000000001" width="80.00000000000028" height="20" as="geometry" />
        </mxCell>
        <mxCell id="82" value="" style="strokeColor=#DEEDFF" parent="1" vertex="1">
          <mxGeometry x="526.500000000002" y="441.0000000000001" width="80.00000000000028" height="20" as="geometry" />
        </mxCell>
        <mxCell id="83" value="" style="strokeColor=#DEEDFF" parent="1" vertex="1">
          <mxGeometry x="606.5000000000015" y="441.0000000000004" width="80.00000000000028" height="20" as="geometry" />
        </mxCell>
        <mxCell id="84" value="2.2" style="strokeColor=#DEEDFF;fontSize=10;" parent="1" vertex="1">
          <mxGeometry x="86.49999999999991" y="461.00000000000017" width="40" height="20" as="geometry" />
        </mxCell>
        <mxCell id="85" value="Tasarımın temel hatlarına karar verilmesi ve tasarim surecinin baslamasi" style="align=left;strokeColor=#DEEDFF;fontSize=10;" parent="1" vertex="1">
          <mxGeometry x="126.49999999999991" y="461.00000000000017" width="320.0000000000001" height="20" as="geometry" />
        </mxCell>
        <mxCell id="86" value="" style="strokeColor=#DEEDFF" parent="1" vertex="1">
          <mxGeometry x="446.50000000000165" y="461.0000000000001" width="80.00000000000028" height="20" as="geometry" />
        </mxCell>
        <mxCell id="87" value="" style="strokeColor=#DEEDFF" parent="1" vertex="1">
          <mxGeometry x="526.5000000000019" y="461.0000000000001" width="80.00000000000028" height="20" as="geometry" />
        </mxCell>
        <mxCell id="88" value="" style="strokeColor=#DEEDFF" parent="1" vertex="1">
          <mxGeometry x="606.5000000000015" y="461.0000000000004" width="80.00000000000028" height="20" as="geometry" />
        </mxCell>
        <mxCell id="89" value="2.3" style="strokeColor=#DEEDFF;fontSize=10;" parent="1" vertex="1">
          <mxGeometry x="86.4999999999999" y="481.00000000000045" width="40" height="20" as="geometry" />
        </mxCell>
        <mxCell id="90" value="Veritabani tasariminin cikarilmasi " style="align=left;strokeColor=#DEEDFF;fontSize=10;" parent="1" vertex="1">
          <mxGeometry x="126.4999999999999" y="481.00000000000045" width="320.0000000000001" height="20" as="geometry" />
        </mxCell>
        <mxCell id="91" value="" style="strokeColor=#DEEDFF" parent="1" vertex="1">
          <mxGeometry x="446.50000000000165" y="481.00000000000034" width="80.00000000000028" height="20" as="geometry" />
        </mxCell>
        <mxCell id="92" value="" style="strokeColor=#DEEDFF" parent="1" vertex="1">
          <mxGeometry x="526.5000000000019" y="481.00000000000034" width="80.00000000000028" height="20" as="geometry" />
        </mxCell>
        <mxCell id="93" value="" style="strokeColor=#DEEDFF" parent="1" vertex="1">
          <mxGeometry x="606.5000000000015" y="481.0000000000007" width="80.00000000000028" height="20" as="geometry" />
        </mxCell>
        <mxCell id="94" value="2.4" style="strokeColor=#DEEDFF;fontSize=10;" parent="1" vertex="1">
          <mxGeometry x="86.50000000000063" y="501.0000000000007" width="40" height="20" as="geometry" />
        </mxCell>
        <mxCell id="95" value="Modullerin akis semasinin oluşturulması" style="align=left;strokeColor=#DEEDFF;fontSize=10;" parent="1" vertex="1">
          <mxGeometry x="126.50000000000063" y="501.0000000000007" width="319.9999999999994" height="20" as="geometry" />
        </mxCell>
        <mxCell id="96" value="" style="strokeColor=#DEEDFF" parent="1" vertex="1">
          <mxGeometry x="446.5000000000024" y="501.0000000000007" width="80.00000000000028" height="20" as="geometry" />
        </mxCell>
        <mxCell id="97" value="" style="strokeColor=#DEEDFF" parent="1" vertex="1">
          <mxGeometry x="526.5000000000027" y="501.0000000000007" width="80.00000000000028" height="20" as="geometry" />
        </mxCell>
        <mxCell id="98" value="" style="strokeColor=#DEEDFF" parent="1" vertex="1">
          <mxGeometry x="606.5000000000022" y="501.0000000000009" width="80.00000000000028" height="20" as="geometry" />
        </mxCell>
        <mxCell id="99" value="2.5" style="strokeColor=#DEEDFF;fontSize=10;" parent="1" vertex="1">
          <mxGeometry x="86.50000000000064" y="521.0000000000006" width="40" height="20" as="geometry" />
        </mxCell>
        <mxCell id="100" value="Planlamalarin oluşturulması ve gorev dagilimlarinin yapılması" style="align=left;strokeColor=#DEEDFF;fontSize=10;" parent="1" vertex="1">
          <mxGeometry x="126.50000000000064" y="521.0000000000006" width="319.9999999999994" height="20" as="geometry" />
        </mxCell>
        <mxCell id="101" value="" style="strokeColor=#DEEDFF" parent="1" vertex="1">
          <mxGeometry x="446.5000000000024" y="521.0000000000006" width="80.00000000000028" height="20" as="geometry" />
        </mxCell>
        <mxCell id="102" value="" style="strokeColor=#DEEDFF" parent="1" vertex="1">
          <mxGeometry x="526.5000000000027" y="521.0000000000006" width="80.00000000000028" height="20" as="geometry" />
        </mxCell>
        <mxCell id="103" value="" style="strokeColor=#DEEDFF" parent="1" vertex="1">
          <mxGeometry x="606.5000000000022" y="521.0000000000008" width="80.00000000000028" height="20" as="geometry" />
        </mxCell>
        <mxCell id="104" value="3" style="strokeColor=#DEEDFF;fillColor=#CCE5FF;fontStyle=1" parent="1" vertex="1">
          <mxGeometry x="86.50000000000037" y="580.000000000001" width="40" height="20" as="geometry" />
        </mxCell>
        <mxCell id="105" value="Geliştirme ve Test Surecleri" style="align=left;strokeColor=#DEEDFF;fillColor=#CCE5FF;fontStyle=1" parent="1" vertex="1">
          <mxGeometry x="126.50000000000037" y="580.000000000001" width="319.99999999999966" height="20.00000000000003" as="geometry" />
        </mxCell>
        <mxCell id="106" value="100 days" style="strokeColor=#DEEDFF;fillColor=#CCE5FF;fontStyle=1" parent="1" vertex="1">
          <mxGeometry x="446.5000000000021" y="580.0000000000009" width="80.00000000000028" height="20" as="geometry" />
        </mxCell>
        <mxCell id="107" value="23.08.23" style="strokeColor=#DEEDFF;fillColor=#CCE5FF" parent="1" vertex="1">
          <mxGeometry x="526.5000000000025" y="580.0000000000009" width="80.00000000000028" height="20" as="geometry" />
        </mxCell>
        <mxCell id="108" value="12.01.24" style="strokeColor=#DEEDFF;fillColor=#CCE5FF" parent="1" vertex="1">
          <mxGeometry x="606.5000000000018" y="580.0000000000013" width="80.00000000000028" height="20" as="geometry" />
        </mxCell>
        <mxCell id="109" value="3.1" style="strokeColor=#DEEDFF;fontSize=10;" parent="1" vertex="1">
          <mxGeometry x="86.50000000000028" y="600.000000000001" width="40" height="20" as="geometry" />
        </mxCell>
        <mxCell id="110" value="Belirlenen sayfalar ve modullerin kodlanmasi" style="align=left;strokeColor=#DEEDFF;fontSize=11;" parent="1" vertex="1">
          <mxGeometry x="126.50000000000028" y="600.000000000001" width="319.9999999999997" height="20" as="geometry" />
        </mxCell>
        <mxCell id="111" value="" style="strokeColor=#DEEDFF" parent="1" vertex="1">
          <mxGeometry x="446.50000000000205" y="600.0000000000009" width="80.00000000000028" height="20" as="geometry" />
        </mxCell>
        <mxCell id="112" value="" style="strokeColor=#DEEDFF" parent="1" vertex="1">
          <mxGeometry x="526.5000000000023" y="600.0000000000009" width="80.00000000000028" height="20" as="geometry" />
        </mxCell>
        <mxCell id="113" value="" style="strokeColor=#DEEDFF" parent="1" vertex="1">
          <mxGeometry x="606.5000000000018" y="600.0000000000013" width="80.00000000000028" height="20" as="geometry" />
        </mxCell>
        <mxCell id="114" value="3.2" style="strokeColor=#DEEDFF;fontSize=10;" parent="1" vertex="1">
          <mxGeometry x="86.50000000000027" y="620.0000000000013" width="40" height="20" as="geometry" />
        </mxCell>
        <mxCell id="115" value="Tamamlanan yapıların es zamanlı olarak test edilmesi ve donutlerin sağlanması" style="align=left;strokeColor=#DEEDFF;fontSize=11;" parent="1" vertex="1">
          <mxGeometry x="126.50000000000027" y="620.0000000000013" width="319.9999999999997" height="20" as="geometry" />
        </mxCell>
        <mxCell id="116" value="" style="strokeColor=#DEEDFF" parent="1" vertex="1">
          <mxGeometry x="446.50000000000205" y="620.0000000000011" width="80.00000000000028" height="20" as="geometry" />
        </mxCell>
        <mxCell id="117" value="" style="strokeColor=#DEEDFF" parent="1" vertex="1">
          <mxGeometry x="526.5000000000023" y="620.0000000000011" width="80.00000000000028" height="20" as="geometry" />
        </mxCell>
        <mxCell id="118" value="" style="strokeColor=#DEEDFF" parent="1" vertex="1">
          <mxGeometry x="606.5000000000018" y="620.0000000000015" width="80.00000000000028" height="20" as="geometry" />
        </mxCell>
        <mxCell id="119" value="3.3" style="strokeColor=#DEEDFF;fontSize=10;" parent="1" vertex="1">
          <mxGeometry x="86.49999999999997" y="640.0000000000016" width="40" height="20" as="geometry" />
        </mxCell>
        <mxCell id="120" value="Tum sistemin full testinin yapilmasi ve hataların giderilmesi" style="align=left;strokeColor=#DEEDFF;fontSize=11;" parent="1" vertex="1">
          <mxGeometry x="126.49999999999997" y="640.0000000000016" width="320" height="20" as="geometry" />
        </mxCell>
        <mxCell id="121" value="" style="strokeColor=#DEEDFF" parent="1" vertex="1">
          <mxGeometry x="446.5000000000017" y="640.0000000000015" width="80.00000000000028" height="20" as="geometry" />
        </mxCell>
        <mxCell id="122" value="" style="strokeColor=#DEEDFF" parent="1" vertex="1">
          <mxGeometry x="526.500000000002" y="640.0000000000015" width="80.00000000000028" height="20" as="geometry" />
        </mxCell>
        <mxCell id="123" value="" style="strokeColor=#DEEDFF" parent="1" vertex="1">
          <mxGeometry x="606.5000000000015" y="640.0000000000018" width="80.00000000000028" height="20" as="geometry" />
        </mxCell>
        <mxCell id="124" value="4" style="strokeColor=#DEEDFF;fillColor=#CCE5FF;fontStyle=1" parent="1" vertex="1">
          <mxGeometry x="86.49999999999999" y="660.0000000000014" width="40" height="20" as="geometry" />
        </mxCell>
        <mxCell id="125" value="Dagitim" style="align=left;strokeColor=#DEEDFF;fillColor=#CCE5FF;fontStyle=1" parent="1" vertex="1">
          <mxGeometry x="126.49999999999999" y="660.0000000000014" width="320" height="20" as="geometry" />
        </mxCell>
        <mxCell id="126" value="2 days" style="strokeColor=#DEEDFF;fillColor=#CCE5FF;fontStyle=1" parent="1" vertex="1">
          <mxGeometry x="446.5000000000017" y="660.0000000000014" width="80.00000000000028" height="20" as="geometry" />
        </mxCell>
        <mxCell id="127" value="15.01.24" style="strokeColor=#DEEDFF;fillColor=#CCE5FF;fontStyle=0" parent="1" vertex="1">
          <mxGeometry x="526.500000000002" y="660.0000000000014" width="80.00000000000028" height="20" as="geometry" />
        </mxCell>
        <mxCell id="128" value="--" style="strokeColor=#DEEDFF;fillColor=#CCE5FF;fontStyle=0" parent="1" vertex="1">
          <mxGeometry x="606.5000000000015" y="660.0000000000016" width="80.00000000000028" height="20" as="geometry" />
        </mxCell>
        <mxCell id="2YZFmlmiOmZLl_yHb_Xa-295" value="" style="edgeStyle=orthogonalEdgeStyle;rounded=0;orthogonalLoop=1;jettySize=auto;html=1;" edge="1" parent="1" source="129" target="140">
          <mxGeometry relative="1" as="geometry" />
        </mxCell>
        <mxCell id="129" value="4.1" style="strokeColor=#DEEDFF;fontSize=10;" parent="1" vertex="1">
          <mxGeometry x="86.49999999999972" y="680.0000000000018" width="40" height="20" as="geometry" />
        </mxCell>
        <mxCell id="130" value="Sistemin canlı ortama dagitilmasi ve sunucu altyapısı/yonetimi" style="align=left;strokeColor=#DEEDFF;fontSize=10;" parent="1" vertex="1">
          <mxGeometry x="126.49999999999972" y="680.0000000000018" width="320.0000000000003" height="20" as="geometry" />
        </mxCell>
        <mxCell id="131" value="" style="strokeColor=#DEEDFF" parent="1" vertex="1">
          <mxGeometry x="446.5000000000014" y="680.0000000000018" width="80.00000000000028" height="20" as="geometry" />
        </mxCell>
        <mxCell id="132" value="" style="strokeColor=#DEEDFF" parent="1" vertex="1">
          <mxGeometry x="526.5000000000018" y="680.0000000000018" width="80.00000000000028" height="20" as="geometry" />
        </mxCell>
        <mxCell id="133" value="" style="strokeColor=#DEEDFF" parent="1" vertex="1">
          <mxGeometry x="606.5000000000011" y="680.000000000002" width="80.00000000000028" height="20" as="geometry" />
        </mxCell>
        <mxCell id="2YZFmlmiOmZLl_yHb_Xa-296" value="" style="edgeStyle=orthogonalEdgeStyle;rounded=0;orthogonalLoop=1;jettySize=auto;html=1;" edge="1" parent="1" source="134" target="145">
          <mxGeometry relative="1" as="geometry" />
        </mxCell>
        <mxCell id="134" value="4.2" style="strokeColor=#DEEDFF;fillColor=#FFFFFF;fontSize=10;" parent="1" vertex="1">
          <mxGeometry x="86.49999999999963" y="700.0000000000018" width="40" height="20" as="geometry" />
        </mxCell>
        <mxCell id="135" value="Sisteme erisimin ve kullanımın devamla kontrolunun sağlanması" style="align=left;strokeColor=#DEEDFF;fillColor=#FFFFFF;fontSize=10;" parent="1" vertex="1">
          <mxGeometry x="126.49999999999963" y="700.0000000000018" width="320.00000000000034" height="20" as="geometry" />
        </mxCell>
        <mxCell id="136" value="" style="strokeColor=#DEEDFF;fillColor=#FFFFFF" parent="1" vertex="1">
          <mxGeometry x="446.50000000000136" y="700.0000000000018" width="80.00000000000028" height="20" as="geometry" />
        </mxCell>
        <mxCell id="137" value="" style="strokeColor=#DEEDFF;fillColor=#FFFFFF" parent="1" vertex="1">
          <mxGeometry x="526.5000000000016" y="700.0000000000018" width="80.00000000000028" height="20" as="geometry" />
        </mxCell>
        <mxCell id="138" value="" style="strokeColor=#DEEDFF;fillColor=#FFFFFF" parent="1" vertex="1">
          <mxGeometry x="606.5000000000011" y="700.000000000002" width="80.00000000000028" height="20" as="geometry" />
        </mxCell>
        <mxCell id="139" value="5" style="strokeColor=#DEEDFF;fillColor=#CCE5FF;fontStyle=1;fontSize=12;" parent="1" vertex="1">
          <mxGeometry x="86.49999999999962" y="720.000000000002" width="40" height="20" as="geometry" />
        </mxCell>
        <mxCell id="140" value="Güncelleme ve Bakim" style="align=left;strokeColor=#DEEDFF;fillColor=#CCE5FF;fontStyle=1" parent="1" vertex="1">
          <mxGeometry x="126.49999999999962" y="720.000000000002" width="320.0000000000004" height="20" as="geometry" />
        </mxCell>
        <mxCell id="141" value="--" style="strokeColor=#DEEDFF;fillColor=#CCE5FF" parent="1" vertex="1">
          <mxGeometry x="446.50000000000136" y="720.000000000002" width="80.00000000000028" height="20" as="geometry" />
        </mxCell>
        <mxCell id="142" value="--" style="strokeColor=#DEEDFF;fillColor=#CCE5FF" parent="1" vertex="1">
          <mxGeometry x="526.5000000000016" y="720.000000000002" width="80.00000000000028" height="20" as="geometry" />
        </mxCell>
        <mxCell id="143" value="--" style="strokeColor=#DEEDFF;fillColor=#CCE5FF" parent="1" vertex="1">
          <mxGeometry x="606.5000000000011" y="720.0000000000023" width="80.00000000000028" height="20" as="geometry" />
        </mxCell>
        <mxCell id="144" value="5.1" style="strokeColor=#DEEDFF;fontSize=10;" parent="1" vertex="1">
          <mxGeometry x="86.500000000001" y="740.0000000000023" width="40" height="20" as="geometry" />
        </mxCell>
        <mxCell id="145" value="Kullanıcı geri bildirimlerinin değerlendirilmesi ve iyileştirmelerin yapılması" style="align=left;strokeColor=#DEEDFF;fontSize=10;" parent="1" vertex="1">
          <mxGeometry x="126.500000000001" y="740.0000000000023" width="319.999999999999" height="20" as="geometry" />
        </mxCell>
        <mxCell id="146" value="" style="strokeColor=#DEEDFF" parent="1" vertex="1">
          <mxGeometry x="446.50000000000273" y="740.0000000000023" width="80.00000000000028" height="20" as="geometry" />
        </mxCell>
        <mxCell id="147" value="" style="strokeColor=#DEEDFF" parent="1" vertex="1">
          <mxGeometry x="526.500000000003" y="740.0000000000023" width="80.00000000000028" height="20" as="geometry" />
        </mxCell>
        <mxCell id="148" value="" style="strokeColor=#DEEDFF" parent="1" vertex="1">
          <mxGeometry x="606.5000000000025" y="740.0000000000025" width="80.00000000000028" height="20" as="geometry" />
        </mxCell>
        <mxCell id="149" value="5.2" style="strokeColor=#DEEDFF;fontSize=10;" parent="1" vertex="1">
          <mxGeometry x="86.50000000000102" y="760.0000000000022" width="40" height="20" as="geometry" />
        </mxCell>
        <mxCell id="150" value="Hata düzeltmeleri ve güncellemelerin sağlanması" style="align=left;strokeColor=#DEEDFF;fontSize=10;" parent="1" vertex="1">
          <mxGeometry x="126.50000000000102" y="760.0000000000022" width="319.999999999999" height="20" as="geometry" />
        </mxCell>
        <mxCell id="151" value="" style="strokeColor=#DEEDFF" parent="1" vertex="1">
          <mxGeometry x="446.50000000000273" y="760.000000000002" width="80.00000000000028" height="20" as="geometry" />
        </mxCell>
        <mxCell id="152" value="" style="strokeColor=#DEEDFF" parent="1" vertex="1">
          <mxGeometry x="526.500000000003" y="760.000000000002" width="80.00000000000028" height="20" as="geometry" />
        </mxCell>
        <mxCell id="153" value="" style="strokeColor=#DEEDFF" parent="1" vertex="1">
          <mxGeometry x="606.5000000000025" y="760.0000000000024" width="80.00000000000028" height="20" as="geometry" />
        </mxCell>
        <mxCell id="2" value="Task Name" style="fillColor=#23445D;strokeColor=#FFFFFF;strokeWidth=2;fontColor=#FFFFFF;fontStyle=1" parent="1" vertex="1">
          <mxGeometry x="126.5" y="340" width="320" height="40" as="geometry" />
        </mxCell>
        <mxCell id="3" value="" style="fillColor=#23445D;strokeColor=#FFFFFF;strokeWidth=2;fontColor=#FFFFFF;fontStyle=1" parent="1" vertex="1">
          <mxGeometry x="86.5" y="340" width="40" height="40" as="geometry" />
        </mxCell>
        <mxCell id="12" value="Duration" style="fillColor=#23445D;strokeColor=#FFFFFF;strokeWidth=2;fontColor=#FFFFFF;fontStyle=1" parent="1" vertex="1">
          <mxGeometry x="446.50000000000176" y="340.00000000000006" width="80.00000000000006" height="40.00000000000001" as="geometry" />
        </mxCell>
        <mxCell id="13" value="Start" style="fillColor=#23445D;strokeColor=#FFFFFF;strokeWidth=2;fontColor=#FFFFFF;fontStyle=1" parent="1" vertex="1">
          <mxGeometry x="526.5000000000018" y="340.00000000000006" width="80.00000000000006" height="40.00000000000001" as="geometry" />
        </mxCell>
        <mxCell id="14" value="ETA" style="fillColor=#23445D;strokeColor=#FFFFFF;strokeWidth=2;fontColor=#FFFFFF;fontStyle=1" parent="1" vertex="1">
          <mxGeometry x="606.5000000000019" y="340.0000000000001" width="80.00000000000006" height="40.00000000000001" as="geometry" />
        </mxCell>
        <mxCell id="2YZFmlmiOmZLl_yHb_Xa-285" value="2.7" style="strokeColor=#DEEDFF;fontSize=10;" vertex="1" parent="1">
          <mxGeometry x="86.50000000000139" y="561.000000000003" width="40" height="20" as="geometry" />
        </mxCell>
        <mxCell id="2YZFmlmiOmZLl_yHb_Xa-286" value="Git / GitHub / CI-CD uzerine gerekli planlama ve eylemlerin yapilmasi" style="align=left;strokeColor=#DEEDFF;fontSize=10;" vertex="1" parent="1">
          <mxGeometry x="126.50000000000139" y="561.000000000003" width="319.99999999999864" height="20" as="geometry" />
        </mxCell>
        <mxCell id="2YZFmlmiOmZLl_yHb_Xa-287" value="" style="strokeColor=#DEEDFF" vertex="1" parent="1">
          <mxGeometry x="446.5000000000031" y="561.000000000003" width="80.00000000000028" height="20" as="geometry" />
        </mxCell>
        <mxCell id="2YZFmlmiOmZLl_yHb_Xa-288" value="" style="strokeColor=#DEEDFF" vertex="1" parent="1">
          <mxGeometry x="526.5000000000034" y="561.000000000003" width="80.00000000000028" height="20" as="geometry" />
        </mxCell>
        <mxCell id="2YZFmlmiOmZLl_yHb_Xa-289" value="" style="strokeColor=#DEEDFF" vertex="1" parent="1">
          <mxGeometry x="606.500000000003" y="561.0000000000032" width="80.00000000000028" height="20" as="geometry" />
        </mxCell>
        <mxCell id="2YZFmlmiOmZLl_yHb_Xa-290" value="2.6" style="strokeColor=#DEEDFF;fontSize=10;" vertex="1" parent="1">
          <mxGeometry x="86.50000000000139" y="541.000000000003" width="40" height="20" as="geometry" />
        </mxCell>
        <mxCell id="2YZFmlmiOmZLl_yHb_Xa-291" value="Proje yönetim sisteminin tercih edilmesi ve gereken kuruluşların yapılması" style="align=left;strokeColor=#DEEDFF;fontSize=10;" vertex="1" parent="1">
          <mxGeometry x="126.50000000000139" y="541.000000000003" width="319.99999999999864" height="20" as="geometry" />
        </mxCell>
        <mxCell id="2YZFmlmiOmZLl_yHb_Xa-292" value="" style="strokeColor=#DEEDFF" vertex="1" parent="1">
          <mxGeometry x="446.5000000000031" y="541.000000000003" width="80.00000000000028" height="20" as="geometry" />
        </mxCell>
        <mxCell id="2YZFmlmiOmZLl_yHb_Xa-293" value="" style="strokeColor=#DEEDFF" vertex="1" parent="1">
          <mxGeometry x="526.5000000000034" y="541.000000000003" width="80.00000000000028" height="20" as="geometry" />
        </mxCell>
        <mxCell id="2YZFmlmiOmZLl_yHb_Xa-294" value="" style="strokeColor=#DEEDFF" vertex="1" parent="1">
          <mxGeometry x="606.500000000003" y="541.0000000000032" width="80.00000000000028" height="20" as="geometry" />
        </mxCell>
      </root>
    </mxGraphModel>
  </diagram>
</mxfile>
